<?xml version="1.0" encoding="UTF-8" standalone="no"?>
<!-- Created with Inkscape (http://www.inkscape.org/) -->

<svg
   width="500mm"
   height="500mm"
   viewBox="0 0 500 500"
   version="1.1"
   id="svg1"
   inkscape:version="1.3.2 (091e20e, 2023-11-25)"
   sodipodi:docname="MOON.svg"
   xmlns:inkscape="http://www.inkscape.org/namespaces/inkscape"
   xmlns:sodipodi="http://sodipodi.sourceforge.net/DTD/sodipodi-0.dtd"
   xmlns="http://www.w3.org/2000/svg"
   xmlns:svg="http://www.w3.org/2000/svg">
  <sodipodi:namedview
     id="namedview1"
     pagecolor="#ffffff"
     bordercolor="#000000"
     borderopacity="0.25"
     inkscape:showpageshadow="2"
     inkscape:pageopacity="0.0"
     inkscape:pagecheckerboard="0"
     inkscape:deskcolor="#d1d1d1"
     inkscape:document-units="mm"
     showgrid="false"
     inkscape:zoom="0.25982083"
     inkscape:cx="946.80629"
     inkscape:cy="944.88189"
     inkscape:window-width="1356"
     inkscape:window-height="697"
     inkscape:window-x="0"
     inkscape:window-y="0"
     inkscape:window-maximized="1"
     inkscape:current-layer="layer1" />
  <defs
     id="defs1" />
  <g
     inkscape:label="Layer 1"
     inkscape:groupmode="layer"
     id="layer1">
    <path
       id="path1"
       style="fill:#ffd408;stroke-width:1;stroke-linecap:square;fill-opacity:1"
       d="M 254.86093 54.41425 A 183.40421 183.40421 0 0 0 233.75421 55.923718 A 141.70322 141.70322 0 0 1 354.86309 196.11723 A 141.70322 141.70322 0 0 1 213.16012 337.82072 A 141.70322 141.70322 0 0 1 72.972807 216.62347 A 183.40421 183.40421 0 0 0 71.45662 237.81856 A 183.40421 183.40421 0 0 0 254.86093 421.22235 A 183.40421 183.40421 0 0 0 438.26524 237.81856 A 183.40421 183.40421 0 0 0 254.86093 54.41425 z " />
  </g>
</svg>
